<svg width="367" height="174" viewBox="0 0 367 174" fill="none" xmlns="http://www.w3.org/2000/svg">
<mask id="mask0_162_1778" style="mask-type:luminance" maskUnits="userSpaceOnUse" x="253" y="0" width="86" height="77">
<path d="M253.966 0H338.56V76.1354H253.966V0Z" fill="white"/>
</mask>
<g mask="url(#mask0_162_1778)">
<path d="M291.997 42.0834L307.883 59.099L292.002 76.1302L287.752 72.1354L297.185 62.0209H253.971V31.3698H259.789V56.1771H297.179L287.752 46.0781L291.997 42.0834ZM295.341 14.1198L304.773 4.00523L300.523 0.010437L284.643 17.0417L300.523 34.0573L304.768 30.0625L295.346 19.9636H332.737V44.7709H338.554V14.1198H295.341Z" fill="white"/>
</g>
<path d="M69.6653 113.654C76.8424 113.654 82.009 115.394 85.1653 118.863C88.3163 122.337 89.8945 128.113 89.8945 136.196V169.175C89.8945 172.081 88.4413 173.529 85.5403 173.529C82.6236 173.529 81.1653 172.081 81.1653 169.175V136.196C81.1653 131.269 80.2747 127.732 78.4986 125.592C76.7174 123.456 73.7747 122.383 69.6653 122.383H64.6861C59.8372 122.383 56.358 123.456 54.2486 125.592C52.1497 127.732 51.1028 131.269 51.1028 136.196V169.175C51.1028 172.081 49.6497 173.529 46.7486 173.529C43.8424 173.529 42.3945 172.081 42.3945 169.175V136.196C42.3945 131.269 41.5038 127.732 39.7278 125.592C37.9465 123.456 34.9986 122.383 30.8736 122.383H25.8945C21.0455 122.383 17.5715 123.456 15.4778 125.592C13.3788 127.732 12.332 131.269 12.332 136.196V169.175C12.332 172.081 10.8736 173.529 7.95695 173.529C5.0507 173.529 3.60278 172.081 3.60278 169.175V118.008C3.60278 115.107 5.0507 113.654 7.95695 113.654C10.8736 113.654 12.332 115.107 12.332 118.008V121.529C14.3424 118.779 16.6028 116.779 19.1028 115.529C21.6132 114.279 24.6913 113.654 28.332 113.654H30.8736C35.634 113.654 39.3945 114.363 42.1445 115.779C44.8945 117.196 47.0299 119.519 48.5611 122.738C50.5038 119.519 52.707 117.196 55.1653 115.779C57.634 114.363 60.8111 113.654 64.6861 113.654H69.6653Z" fill="white"/>
<path d="M142.724 113.654C150.641 113.654 156.459 115.519 160.183 119.238C163.901 122.946 165.766 128.758 165.766 136.675V169.175C165.766 170.54 165.375 171.607 164.599 172.383C163.834 173.149 162.766 173.529 161.391 173.529C160.016 173.529 158.943 173.149 158.183 172.383C157.417 171.607 157.037 170.54 157.037 169.175V165.279C152.745 170.779 146.193 173.529 137.391 173.529H130.599C123.974 173.529 119.084 171.956 115.933 168.8C112.776 165.649 111.203 160.758 111.203 154.133C111.203 147.508 112.776 142.623 115.933 139.467C119.084 136.316 123.974 134.738 130.599 134.738H157.037C156.787 130.061 155.61 126.831 153.516 125.05C151.417 123.274 147.818 122.383 142.724 122.383H135.703C131.172 122.383 127.854 122.769 125.745 123.529C123.646 124.295 122.235 125.607 121.516 127.467C120.943 128.925 120.334 129.941 119.683 130.508C119.042 131.066 118.078 131.342 116.787 131.342C115.495 131.342 114.443 131.024 113.641 130.383C112.834 129.732 112.433 128.883 112.433 127.842C112.433 127.441 112.464 127.113 112.537 126.863C113.505 122.337 115.87 119.003 119.62 116.863C123.38 114.727 128.745 113.654 135.703 113.654H142.724ZM156.537 154.988C156.703 154.337 156.87 153.852 157.037 153.529V143.467H130.599C126.401 143.467 123.578 144.196 122.12 145.654C120.662 147.113 119.933 149.941 119.933 154.133C119.933 158.342 120.662 161.175 122.12 162.633C123.578 164.081 126.401 164.8 130.599 164.8H137.391C148.459 164.8 154.839 161.529 156.537 154.988Z" fill="white"/>
<path d="M214.463 164.8C217.379 164.8 218.838 166.258 218.838 169.175C218.838 170.54 218.447 171.607 217.671 172.383C216.905 173.149 215.838 173.529 214.463 173.529C206.713 173.529 200.994 171.712 197.317 168.071C193.635 164.435 191.796 158.738 191.796 150.988V122.383H185.379C184.004 122.383 182.931 122.003 182.171 121.238C181.405 120.462 181.025 119.383 181.025 118.008C181.025 116.633 181.405 115.566 182.171 114.8C182.931 114.04 184.004 113.654 185.379 113.654H191.796V103.238C191.796 100.321 193.254 98.8625 196.171 98.8625C199.072 98.8625 200.525 100.321 200.525 103.238V113.654H214.963C216.322 113.654 217.385 114.04 218.15 114.8C218.926 115.566 219.317 116.633 219.317 118.008C219.317 119.383 218.926 120.462 218.15 121.238C217.385 122.003 216.322 122.383 214.963 122.383H200.525V150.988C200.525 154.628 200.947 157.441 201.796 159.425C202.64 161.399 204.051 162.79 206.025 163.592C208.01 164.399 210.822 164.8 214.463 164.8Z" fill="white"/>
<path d="M269.368 113.654C270.743 113.654 271.81 114.04 272.576 114.8C273.336 115.566 273.722 116.633 273.722 118.008C273.722 119.383 273.336 120.462 272.576 121.238C271.81 122.003 270.743 122.383 269.368 122.383C262.086 122.383 256.534 123.878 252.701 126.863C248.868 129.852 246.951 133.977 246.951 139.238V169.175C246.951 170.54 246.56 171.607 245.784 172.383C245.019 173.149 243.951 173.529 242.576 173.529C241.201 173.529 240.128 173.149 239.368 172.383C238.602 171.607 238.222 170.54 238.222 169.175V118.008C238.222 116.633 238.602 115.566 239.368 114.8C240.128 114.04 241.201 113.654 242.576 113.654C243.951 113.654 245.019 114.04 245.784 114.8C246.56 115.566 246.951 116.633 246.951 118.008V124.446C249.284 120.894 252.347 118.206 256.138 116.383C259.94 114.566 264.352 113.654 269.368 113.654Z" fill="white"/>
<path d="M292.747 173.529C291.372 173.529 290.3 173.149 289.539 172.383C288.774 171.607 288.393 170.54 288.393 169.175V118.008C288.393 116.633 288.774 115.566 289.539 114.8C290.3 114.04 291.372 113.654 292.747 113.654C294.122 113.654 295.19 114.04 295.956 114.8C296.732 115.566 297.122 116.633 297.122 118.008V169.175C297.122 170.54 296.732 171.607 295.956 172.383C295.19 173.149 294.122 173.529 292.747 173.529ZM291.164 103.342C289.466 103.342 288.175 102.883 287.289 101.967C286.399 101.04 285.956 99.7585 285.956 98.1335V94.7376C285.956 91.4355 287.69 89.7793 291.164 89.7793H294.331C295.94 89.7793 297.169 90.2064 298.018 91.0501C298.862 91.8991 299.289 93.1283 299.289 94.7376V98.1335C299.289 99.7585 298.841 101.04 297.956 101.967C297.065 102.883 295.857 103.342 294.331 103.342H291.164Z" fill="white"/>
<path d="M365.709 166.258C366.443 167.232 366.813 168.206 366.813 169.175C366.813 170.383 366.198 171.477 364.98 172.446C364.021 173.17 363.052 173.529 362.084 173.529C360.86 173.529 359.771 172.883 358.813 171.592L341.105 148.675L324.271 171.467C323.297 172.842 322.167 173.529 320.875 173.529C320.052 173.529 319.167 173.17 318.209 172.446C316.834 171.477 316.146 170.342 316.146 169.05C316.146 168.165 316.506 167.232 317.23 166.258L335.542 141.529L319.646 120.925C318.922 119.956 318.563 119.024 318.563 118.133C318.563 116.925 319.209 115.795 320.5 114.738C321.469 114.019 322.401 113.654 323.292 113.654C324.5 113.654 325.631 114.3 326.688 115.592L341.834 135.238L357.105 115.467C358.073 114.258 359.167 113.654 360.375 113.654C361.261 113.654 362.193 114.019 363.167 114.738C364.459 115.712 365.105 116.8 365.105 118.008C365.105 118.899 364.74 119.831 364.021 120.8L347.292 142.383L365.709 166.258Z" fill="white"/>
<path d="M17.2902 64.5002C12.2069 64.5002 8.24857 63.4325 5.41523 61.2919C2.5819 59.1565 0.80065 55.9377 0.0818992 51.6461C-0.157683 50.2034 0.128774 49.0784 0.936066 48.2711C1.73815 47.4534 2.87357 47.0419 4.3319 47.0419C5.7069 47.0419 6.71211 47.3909 7.35273 48.0836C8.00377 48.7659 8.52982 49.8336 8.93607 51.2919C9.33711 52.9898 10.1652 54.1617 11.4152 54.8127C12.6652 55.4534 14.6236 55.7711 17.2902 55.7711H37.1652C40.5663 55.7711 42.8736 55.1877 44.0819 54.0211C45.2902 52.844 45.8944 50.5159 45.8944 47.0419C45.8944 43.5732 45.2902 41.2502 44.0819 40.0836C42.8736 38.9065 40.5663 38.3127 37.1652 38.3127H17.6652C6.42565 38.3127 0.811066 32.7034 0.811066 21.4794C0.811066 15.745 2.19648 11.5002 4.97773 8.75024C7.7694 6.00024 11.9986 4.62524 17.6652 4.62524H36.5611C45.9361 4.62524 51.3527 8.62524 52.8111 16.6252C53.0454 18.0836 52.759 19.219 51.9569 20.0211C51.1496 20.8284 50.0194 21.2294 48.5611 21.2294C47.2694 21.2294 46.2746 20.9117 45.5819 20.2711C44.8996 19.62 44.3579 18.5627 43.9569 17.1044C43.5507 15.6461 42.7798 14.6617 41.6444 14.1461C40.5194 13.62 38.8215 13.3544 36.5611 13.3544H17.6652C14.4256 13.3544 12.259 13.8857 11.1652 14.9377C10.0819 15.9794 9.54023 18.1617 9.54023 21.4794C9.54023 24.6357 10.0819 26.7711 11.1652 27.8961C12.259 29.0211 14.4256 29.5836 17.6652 29.5836H37.1652C43.0663 29.5836 47.4465 31.0211 50.3111 33.8961C53.1861 36.7607 54.6236 41.1409 54.6236 47.0419C54.6236 52.9482 53.1861 57.3336 50.3111 60.2086C47.4465 63.0732 43.0663 64.5002 37.1652 64.5002H17.2902Z" fill="white"/>
<path d="M108.91 4.62524C116.827 4.62524 122.644 6.48983 126.368 10.2086C130.087 13.9169 131.952 19.7294 131.952 27.6461V41.4794C131.952 49.3127 130.087 55.1148 126.368 58.8752C122.644 62.6252 116.827 64.5002 108.91 64.5002H84.6808V84.3752C84.6808 85.7502 84.2902 86.818 83.5142 87.5836C82.7485 88.3596 81.6808 88.7502 80.3058 88.7502C78.9308 88.7502 77.8579 88.3596 77.0975 87.5836C76.3319 86.818 75.9517 85.7502 75.9517 84.3752V8.97941C75.9517 7.60441 76.3319 6.5367 77.0975 5.77108C77.8579 5.01066 78.9308 4.62524 80.3058 4.62524C81.6808 4.62524 82.7485 5.01066 83.5142 5.77108C84.2902 6.5367 84.6808 7.60441 84.6808 8.97941V11.7711C88.7902 7.01066 95.3319 4.62524 104.306 4.62524H108.91ZM123.222 27.6461C123.222 23.9377 122.775 21.0784 121.889 19.0627C120.999 17.0367 119.54 15.5784 117.514 14.6877C115.499 13.8023 112.629 13.3544 108.91 13.3544H104.306C98.3319 13.3544 93.5662 14.1825 90.0142 15.8336C86.4569 17.4898 84.6808 19.9325 84.6808 23.1669V55.7711H108.91C112.629 55.7711 115.499 55.3284 117.514 54.4377C119.54 53.5523 120.999 52.0992 121.889 50.0836C122.775 48.0575 123.222 45.1877 123.222 41.4794V27.6461Z" fill="white"/>
<path d="M175.085 64.5002C167.252 64.5002 161.45 62.6461 157.69 58.9377C153.924 55.219 152.044 49.4325 152.044 41.5836V27.6461C152.044 19.7294 153.903 13.9169 157.627 10.2086C161.346 6.48983 167.169 4.62524 175.085 4.62524H185.023C192.94 4.62524 198.752 6.48983 202.46 10.2086C206.179 13.9169 208.044 19.7294 208.044 27.6461V41.4794C208.044 49.3127 206.179 55.1148 202.46 58.8752C198.752 62.6252 192.94 64.5002 185.023 64.5002H175.085ZM185.023 55.7711C188.742 55.7711 191.611 55.3284 193.627 54.4377C195.637 53.5523 197.091 52.0992 197.981 50.0836C198.867 48.0575 199.315 45.1877 199.315 41.4794V27.6461C199.315 23.9377 198.867 21.0784 197.981 19.0627C197.091 17.0367 195.637 15.5784 193.627 14.6877C191.611 13.8023 188.742 13.3544 185.023 13.3544H175.085C171.361 13.3544 168.486 13.7815 166.46 14.6252C164.445 15.4742 162.992 16.9325 162.106 19.0002C161.216 21.0575 160.773 23.9377 160.773 27.6461V41.5836C160.773 45.2242 161.216 48.0575 162.106 50.0836C162.992 52.0992 164.445 53.5523 166.46 54.4377C168.486 55.3284 171.361 55.7711 175.085 55.7711H185.023Z" fill="white"/>
</svg>
