 <svg xmlns="http://www.w3.org/2000/svg" xmlns:xlink="http://www.w3.org/1999/xlink" width="500" zoomAndPan="magnify" viewBox="0 0 375 374.999991" height="500" preserveAspectRatio="xMidYMid meet" version="1.0"><defs><g/><clipPath id="473d1f2e30"><path d="M 240.816406 130.816406 L 304.261719 130.816406 L 304.261719 187.917969 L 240.816406 187.917969 Z M 240.816406 130.816406 " clip-rule="nonzero"/></clipPath></defs><rect x="-37.5" width="450" fill="#ffffff" y="-37.499999" height="449.999989" fill-opacity="1"/><rect x="-37.5" width="450" fill="#ffffff" y="-37.499999" height="449.999989" fill-opacity="1"/><g clip-path="url(#473d1f2e30)"><path fill="#000000" d="M 269.339844 162.378906 L 281.253906 175.140625 L 269.34375 187.914062 L 266.15625 184.917969 L 273.230469 177.332031 L 240.820312 177.332031 L 240.820312 154.34375 L 245.183594 154.34375 L 245.183594 172.949219 L 273.226562 172.949219 L 266.15625 165.375 Z M 271.847656 141.40625 L 278.921875 133.820312 L 275.734375 130.824219 L 263.824219 143.597656 L 275.734375 156.359375 L 278.917969 153.363281 L 271.851562 145.789062 L 299.894531 145.789062 L 299.894531 164.394531 L 304.257812 164.394531 L 304.257812 141.40625 Z M 271.847656 141.40625 " fill-opacity="1" fill-rule="nonzero"/></g><g fill="#000000" fill-opacity="1"><g transform="translate(43.950431, 260.963358)"><g><path d="M 58.640625 -44.90625 C 64.023438 -44.90625 67.898438 -43.601562 70.265625 -41 C 72.628906 -38.394531 73.8125 -34.0625 73.8125 -28 L 73.8125 -3.265625 C 73.8125 -1.085938 72.722656 0 70.546875 0 C 68.359375 0 67.265625 -1.085938 67.265625 -3.265625 L 67.265625 -28 C 67.265625 -31.695312 66.597656 -34.347656 65.265625 -35.953125 C 63.929688 -37.554688 61.722656 -38.359375 58.640625 -38.359375 L 54.90625 -38.359375 C 51.269531 -38.359375 48.660156 -37.554688 47.078125 -35.953125 C 45.503906 -34.347656 44.71875 -31.695312 44.71875 -28 L 44.71875 -3.265625 C 44.71875 -1.085938 43.628906 0 41.453125 0 C 39.273438 0 38.1875 -1.085938 38.1875 -3.265625 L 38.1875 -28 C 38.1875 -31.695312 37.519531 -34.347656 36.1875 -35.953125 C 34.851562 -37.554688 32.640625 -38.359375 29.546875 -38.359375 L 25.8125 -38.359375 C 22.175781 -38.359375 19.570312 -37.554688 18 -35.953125 C 16.425781 -34.347656 15.640625 -31.695312 15.640625 -28 L 15.640625 -3.265625 C 15.640625 -1.085938 14.546875 0 12.359375 0 C 10.179688 0 9.09375 -1.085938 9.09375 -3.265625 L 9.09375 -41.640625 C 9.09375 -43.816406 10.179688 -44.90625 12.359375 -44.90625 C 14.546875 -44.90625 15.640625 -43.816406 15.640625 -41.640625 L 15.640625 -39 C 17.148438 -41.0625 18.84375 -42.5625 20.71875 -43.5 C 22.601562 -44.4375 24.910156 -44.90625 27.640625 -44.90625 L 29.546875 -44.90625 C 33.117188 -44.90625 35.9375 -44.375 38 -43.3125 C 40.0625 -42.25 41.664062 -40.507812 42.8125 -38.09375 C 44.269531 -40.507812 45.921875 -42.25 47.765625 -43.3125 C 49.617188 -44.375 52 -44.90625 54.90625 -44.90625 Z M 58.640625 -44.90625 "/></g></g></g><g fill="#000000" fill-opacity="1"><g transform="translate(126.479035, 260.963358)"><g><path d="M 30.90625 -44.90625 C 36.84375 -44.90625 41.207031 -43.507812 44 -40.71875 C 46.789062 -37.9375 48.1875 -33.578125 48.1875 -27.640625 L 48.1875 -3.265625 C 48.1875 -2.242188 47.894531 -1.441406 47.3125 -0.859375 C 46.738281 -0.285156 45.9375 0 44.90625 0 C 43.875 0 43.070312 -0.285156 42.5 -0.859375 C 41.925781 -1.441406 41.640625 -2.242188 41.640625 -3.265625 L 41.640625 -6.1875 C 38.421875 -2.0625 33.507812 0 26.90625 0 L 21.8125 0 C 16.84375 0 13.175781 -1.179688 10.8125 -3.546875 C 8.445312 -5.910156 7.265625 -9.578125 7.265625 -14.546875 C 7.265625 -19.515625 8.445312 -23.179688 10.8125 -25.546875 C 13.175781 -27.910156 16.84375 -29.09375 21.8125 -29.09375 L 41.640625 -29.09375 C 41.453125 -32.601562 40.570312 -35.023438 39 -36.359375 C 37.425781 -37.691406 34.726562 -38.359375 30.90625 -38.359375 L 25.640625 -38.359375 C 22.242188 -38.359375 19.753906 -38.070312 18.171875 -37.5 C 16.597656 -36.925781 15.539062 -35.941406 15 -34.546875 C 14.570312 -33.453125 14.113281 -32.691406 13.625 -32.265625 C 13.144531 -31.847656 12.421875 -31.640625 11.453125 -31.640625 C 10.484375 -31.640625 9.695312 -31.878906 9.09375 -32.359375 C 8.488281 -32.847656 8.1875 -33.484375 8.1875 -34.265625 C 8.1875 -34.566406 8.210938 -34.8125 8.265625 -35 C 8.992188 -38.394531 10.765625 -40.894531 13.578125 -42.5 C 16.398438 -44.101562 20.421875 -44.90625 25.640625 -44.90625 Z M 41.265625 -13.90625 C 41.390625 -14.394531 41.515625 -14.757812 41.640625 -15 L 41.640625 -22.546875 L 21.8125 -22.546875 C 18.664062 -22.546875 16.546875 -22 15.453125 -20.90625 C 14.359375 -19.8125 13.8125 -17.691406 13.8125 -14.546875 C 13.8125 -11.390625 14.359375 -9.265625 15.453125 -8.171875 C 16.546875 -7.085938 18.664062 -6.546875 21.8125 -6.546875 L 26.90625 -6.546875 C 35.207031 -6.546875 39.992188 -9 41.265625 -13.90625 Z M 41.265625 -13.90625 "/></g></g></g><g fill="#000000" fill-opacity="1"><g transform="translate(183.376546, 260.963358)"><g><path d="M 27.8125 -6.546875 C 30 -6.546875 31.09375 -5.453125 31.09375 -3.265625 C 31.09375 -2.242188 30.800781 -1.441406 30.21875 -0.859375 C 29.644531 -0.285156 28.84375 0 27.8125 0 C 22 0 17.710938 -1.363281 14.953125 -4.09375 C 12.191406 -6.820312 10.8125 -11.09375 10.8125 -16.90625 L 10.8125 -38.359375 L 6 -38.359375 C 4.96875 -38.359375 4.164062 -38.644531 3.59375 -39.21875 C 3.019531 -39.800781 2.734375 -40.609375 2.734375 -41.640625 C 2.734375 -42.671875 3.019531 -43.472656 3.59375 -44.046875 C 4.164062 -44.617188 4.96875 -44.90625 6 -44.90625 L 10.8125 -44.90625 L 10.8125 -52.71875 C 10.8125 -54.90625 11.90625 -56 14.09375 -56 C 16.269531 -56 17.359375 -54.90625 17.359375 -52.71875 L 17.359375 -44.90625 L 28.1875 -44.90625 C 29.207031 -44.90625 30.003906 -44.617188 30.578125 -44.046875 C 31.160156 -43.472656 31.453125 -42.671875 31.453125 -41.640625 C 31.453125 -40.609375 31.160156 -39.800781 30.578125 -39.21875 C 30.003906 -38.644531 29.207031 -38.359375 28.1875 -38.359375 L 17.359375 -38.359375 L 17.359375 -16.90625 C 17.359375 -14.175781 17.675781 -12.066406 18.3125 -10.578125 C 18.945312 -9.097656 20.003906 -8.054688 21.484375 -7.453125 C 22.972656 -6.847656 25.082031 -6.546875 27.8125 -6.546875 Z M 27.8125 -6.546875 "/></g></g></g><g fill="#000000" fill-opacity="1"><g transform="translate(219.914625, 260.963358)"><g><path d="M 32.453125 -44.90625 C 33.484375 -44.90625 34.285156 -44.617188 34.859375 -44.046875 C 35.429688 -43.472656 35.71875 -42.671875 35.71875 -41.640625 C 35.71875 -40.609375 35.429688 -39.800781 34.859375 -39.21875 C 34.285156 -38.644531 33.484375 -38.359375 32.453125 -38.359375 C 26.992188 -38.359375 22.828125 -37.238281 19.953125 -35 C 17.078125 -32.757812 15.640625 -29.664062 15.640625 -25.71875 L 15.640625 -3.265625 C 15.640625 -2.242188 15.347656 -1.441406 14.765625 -0.859375 C 14.191406 -0.285156 13.390625 0 12.359375 0 C 11.328125 0 10.523438 -0.285156 9.953125 -0.859375 C 9.378906 -1.441406 9.09375 -2.242188 9.09375 -3.265625 L 9.09375 -41.640625 C 9.09375 -42.671875 9.378906 -43.472656 9.953125 -44.046875 C 10.523438 -44.617188 11.328125 -44.90625 12.359375 -44.90625 C 13.390625 -44.90625 14.191406 -44.617188 14.765625 -44.046875 C 15.347656 -43.472656 15.640625 -42.671875 15.640625 -41.640625 L 15.640625 -36.8125 C 17.390625 -39.476562 19.6875 -41.492188 22.53125 -42.859375 C 25.382812 -44.222656 28.691406 -44.90625 32.453125 -44.90625 Z M 32.453125 -44.90625 "/></g></g></g><g fill="#000000" fill-opacity="1"><g transform="translate(257.543373, 260.963358)"><g><path d="M 12.359375 0 C 11.328125 0 10.523438 -0.285156 9.953125 -0.859375 C 9.378906 -1.441406 9.09375 -2.242188 9.09375 -3.265625 L 9.09375 -41.640625 C 9.09375 -42.671875 9.378906 -43.472656 9.953125 -44.046875 C 10.523438 -44.617188 11.328125 -44.90625 12.359375 -44.90625 C 13.390625 -44.90625 14.191406 -44.617188 14.765625 -44.046875 C 15.347656 -43.472656 15.640625 -42.671875 15.640625 -41.640625 L 15.640625 -3.265625 C 15.640625 -2.242188 15.347656 -1.441406 14.765625 -0.859375 C 14.191406 -0.285156 13.390625 0 12.359375 0 Z M 11.171875 -52.640625 C 9.898438 -52.640625 8.929688 -52.984375 8.265625 -53.671875 C 7.597656 -54.367188 7.265625 -55.328125 7.265625 -56.546875 L 7.265625 -59.09375 C 7.265625 -61.570312 8.566406 -62.8125 11.171875 -62.8125 L 13.546875 -62.8125 C 14.753906 -62.8125 15.675781 -62.492188 16.3125 -61.859375 C 16.945312 -61.222656 17.265625 -60.300781 17.265625 -59.09375 L 17.265625 -56.546875 C 17.265625 -55.328125 16.929688 -54.367188 16.265625 -53.671875 C 15.597656 -52.984375 14.691406 -52.640625 13.546875 -52.640625 Z M 11.171875 -52.640625 "/></g></g></g><g fill="#000000" fill-opacity="1"><g transform="translate(282.811033, 260.963358)"><g><path d="M 41.8125 -5.453125 C 42.363281 -4.722656 42.640625 -3.992188 42.640625 -3.265625 C 42.640625 -2.359375 42.179688 -1.539062 41.265625 -0.8125 C 40.546875 -0.269531 39.820312 0 39.09375 0 C 38.175781 0 37.359375 -0.484375 36.640625 -1.453125 L 23.359375 -18.640625 L 10.734375 -1.546875 C 10.003906 -0.515625 9.15625 0 8.1875 0 C 7.570312 0 6.90625 -0.269531 6.1875 -0.8125 C 5.15625 -1.539062 4.640625 -2.390625 4.640625 -3.359375 C 4.640625 -4.023438 4.910156 -4.722656 5.453125 -5.453125 L 19.1875 -24 L 7.265625 -39.453125 C 6.722656 -40.179688 6.453125 -40.878906 6.453125 -41.546875 C 6.453125 -42.453125 6.9375 -43.300781 7.90625 -44.09375 C 8.632812 -44.632812 9.332031 -44.90625 10 -44.90625 C 10.90625 -44.90625 11.753906 -44.421875 12.546875 -43.453125 L 23.90625 -28.71875 L 35.359375 -43.546875 C 36.085938 -44.453125 36.90625 -44.90625 37.8125 -44.90625 C 38.476562 -44.90625 39.175781 -44.632812 39.90625 -44.09375 C 40.875 -43.363281 41.359375 -42.546875 41.359375 -41.640625 C 41.359375 -40.972656 41.085938 -40.273438 40.546875 -39.546875 L 28 -23.359375 Z M 41.8125 -5.453125 "/></g></g></g><g fill="#000000" fill-opacity="1"><g transform="translate(43.950431, 179.19161)"><g><path d="M 19.359375 0 C 15.546875 0 12.578125 -0.800781 10.453125 -2.40625 C 8.328125 -4.007812 6.992188 -6.421875 6.453125 -9.640625 C 6.273438 -10.722656 6.488281 -11.566406 7.09375 -12.171875 C 7.695312 -12.785156 8.546875 -13.09375 9.640625 -13.09375 C 10.671875 -13.09375 11.425781 -12.832031 11.90625 -12.3125 C 12.394531 -11.800781 12.789062 -11 13.09375 -9.90625 C 13.394531 -8.632812 14.015625 -7.753906 14.953125 -7.265625 C 15.890625 -6.785156 17.359375 -6.546875 19.359375 -6.546875 L 34.265625 -6.546875 C 36.816406 -6.546875 38.546875 -6.984375 39.453125 -7.859375 C 40.359375 -8.742188 40.8125 -10.488281 40.8125 -13.09375 C 40.8125 -15.695312 40.359375 -17.4375 39.453125 -18.3125 C 38.546875 -19.195312 36.816406 -19.640625 34.265625 -19.640625 L 19.640625 -19.640625 C 11.210938 -19.640625 7 -23.847656 7 -32.265625 C 7 -36.566406 8.039062 -39.75 10.125 -41.8125 C 12.21875 -43.875 15.390625 -44.90625 19.640625 -44.90625 L 33.8125 -44.90625 C 40.84375 -44.90625 44.90625 -41.90625 46 -35.90625 C 46.175781 -34.8125 45.960938 -33.960938 45.359375 -33.359375 C 44.753906 -32.753906 43.90625 -32.453125 42.8125 -32.453125 C 41.84375 -32.453125 41.097656 -32.691406 40.578125 -33.171875 C 40.066406 -33.660156 39.660156 -34.453125 39.359375 -35.546875 C 39.054688 -36.640625 38.476562 -37.378906 37.625 -37.765625 C 36.78125 -38.160156 35.507812 -38.359375 33.8125 -38.359375 L 19.640625 -38.359375 C 17.210938 -38.359375 15.585938 -37.960938 14.765625 -37.171875 C 13.953125 -36.390625 13.546875 -34.753906 13.546875 -32.265625 C 13.546875 -29.898438 13.953125 -28.296875 14.765625 -27.453125 C 15.585938 -26.609375 17.210938 -26.1875 19.640625 -26.1875 L 34.265625 -26.1875 C 38.691406 -26.1875 41.976562 -25.109375 44.125 -22.953125 C 46.28125 -20.804688 47.359375 -17.519531 47.359375 -13.09375 C 47.359375 -8.664062 46.28125 -5.375 44.125 -3.21875 C 41.976562 -1.070312 38.691406 0 34.265625 0 Z M 19.359375 0 "/></g></g></g><g fill="#000000" fill-opacity="1"><g transform="translate(98.212123, 179.19161)"><g><path d="M 33.8125 -44.90625 C 39.75 -44.90625 44.113281 -43.507812 46.90625 -40.71875 C 49.695312 -37.9375 51.09375 -33.578125 51.09375 -27.640625 L 51.09375 -17.265625 C 51.09375 -11.390625 49.695312 -7.039062 46.90625 -4.21875 C 44.113281 -1.40625 39.75 0 33.8125 0 L 15.640625 0 L 15.640625 14.90625 C 15.640625 15.9375 15.347656 16.738281 14.765625 17.3125 C 14.191406 17.894531 13.390625 18.1875 12.359375 18.1875 C 11.328125 18.1875 10.523438 17.894531 9.953125 17.3125 C 9.378906 16.738281 9.09375 15.9375 9.09375 14.90625 L 9.09375 -41.640625 C 9.09375 -42.671875 9.378906 -43.472656 9.953125 -44.046875 C 10.523438 -44.617188 11.328125 -44.90625 12.359375 -44.90625 C 13.390625 -44.90625 14.191406 -44.617188 14.765625 -44.046875 C 15.347656 -43.472656 15.640625 -42.671875 15.640625 -41.640625 L 15.640625 -39.546875 C 18.722656 -43.117188 23.628906 -44.90625 30.359375 -44.90625 Z M 44.546875 -27.640625 C 44.546875 -30.421875 44.210938 -32.566406 43.546875 -34.078125 C 42.878906 -35.597656 41.785156 -36.691406 40.265625 -37.359375 C 38.753906 -38.023438 36.601562 -38.359375 33.8125 -38.359375 L 30.359375 -38.359375 C 25.878906 -38.359375 22.304688 -37.738281 19.640625 -36.5 C 16.972656 -35.257812 15.640625 -33.425781 15.640625 -31 L 15.640625 -6.546875 L 33.8125 -6.546875 C 36.601562 -6.546875 38.753906 -6.878906 40.265625 -7.546875 C 41.785156 -8.210938 42.878906 -9.300781 43.546875 -10.8125 C 44.210938 -12.332031 44.546875 -14.484375 44.546875 -17.265625 Z M 44.546875 -27.640625 "/></g></g></g><g fill="#000000" fill-opacity="1"><g transform="translate(157.109219, 179.19161)"><g><path d="M 24.546875 0 C 18.671875 0 14.320312 -1.390625 11.5 -4.171875 C 8.675781 -6.960938 7.265625 -11.300781 7.265625 -17.1875 L 7.265625 -27.640625 C 7.265625 -33.578125 8.660156 -37.9375 11.453125 -40.71875 C 14.242188 -43.507812 18.609375 -44.90625 24.546875 -44.90625 L 32 -44.90625 C 37.9375 -44.90625 42.296875 -43.507812 45.078125 -40.71875 C 47.867188 -37.9375 49.265625 -33.578125 49.265625 -27.640625 L 49.265625 -17.265625 C 49.265625 -11.390625 47.867188 -7.039062 45.078125 -4.21875 C 42.296875 -1.40625 37.9375 0 32 0 Z M 32 -6.546875 C 34.789062 -6.546875 36.941406 -6.878906 38.453125 -7.546875 C 39.960938 -8.210938 41.050781 -9.300781 41.71875 -10.8125 C 42.382812 -12.332031 42.71875 -14.484375 42.71875 -17.265625 L 42.71875 -27.640625 C 42.71875 -30.421875 42.382812 -32.566406 41.71875 -34.078125 C 41.050781 -35.597656 39.960938 -36.691406 38.453125 -37.359375 C 36.941406 -38.023438 34.789062 -38.359375 32 -38.359375 L 24.546875 -38.359375 C 21.753906 -38.359375 19.597656 -38.039062 18.078125 -37.40625 C 16.566406 -36.769531 15.476562 -35.675781 14.8125 -34.125 C 14.144531 -32.582031 13.8125 -30.421875 13.8125 -27.640625 L 13.8125 -17.1875 C 13.8125 -14.457031 14.144531 -12.332031 14.8125 -10.8125 C 15.476562 -9.300781 16.566406 -8.210938 18.078125 -7.546875 C 19.597656 -6.878906 21.753906 -6.546875 24.546875 -6.546875 Z M 32 -6.546875 "/></g></g></g></svg>